[img]http://img835.imageshack.us/img835/209/10000bc2008320x200.jpg[/img]
 
http://www.imdb.com/title/tt0443649/

Source: 10,000 BC 2008 720p BluRay DTS x264-CtrlHD

Subs: Albanian, Arabic, Czech, Danish, Dutch, English, Finnish, French, German, Greek, Hebrew, Hungarian, Indonesian, Polish, Portuguese, Romanian, Serbian, Slovenian, Spanish and Swedish.

Sample and Screens included.

General
Complete name                    : 10.000 BC 2008-720p MP4 AAC Multisubs BRRip-CC\10.000 BC 2008-720p MP4 AAC BRRip-CC.mp4
Format                           : MPEG-4
Format profile                   : Base Media
Codec ID                         : isom
File size                        : 1.84 GiB
Duration                         : 1h 48mn
Overall bit rate                 : 2 417 Kbps
Encoded date                     : UTC 2011-12-03 11:35:15
Tagged date                      : UTC 2011-12-03 11:35:15
Writing application              : Yamb 2.1.0.0 
Video
ID                               : 1
Format                           : AVC
Format/Info                      : Advanced Video Codec
Format profile                   : Main@L3.1
Format settings, CABAC           : Yes
Format settings, ReFrames        : 5 frames
Codec ID                         : avc1
Codec ID/Info                    : Advanced Video Coding
Duration                         : 1h 48mn
Bit rate mode                    : Variable
Bit rate                         : 2 037 Kbps
Maximum bit rate                 : 8 684 Kbps
Width                            : 1 280 pixels
Height                           : 528 pixels
Display aspect ratio             : 2.40:1
Frame rate mode                  : Variable
Frame rate                       : 23.976 fps
Minimum frame rate               : 23.810 fps
Maximum frame rate               : 24.390 fps
Resolution                       : 8 bits
Colorimetry                      : 4:2:0
Scan type                        : Progressive
Bits/(Pixel*Frame)               : 0.126
Stream size                      : 1.54 GiB (84%)
Writing library                  : x264 core 65
Encoding settings                : cabac=1 / ref=5 / deblock=1:0:0 / analyse=0x1:0x111 / me=hex / subme=6 / psy_rd=1.0:0.0 / mixed_ref=0 / me_range=16 / chroma_me=1 / trellis=0 / 8x8dct=0 / cqm=0 / deadzone=21,11 / chroma_qp_offset=-2 / threads=3 / nr=0 / decimate=1 / mbaff=0 / bframes=5 / b_pyramid=0 / b_adapt=1 / b_bias=0 / direct=1 / wpredb=0 / keyint=240 / keyint_min=24 / scenecut=40(pre) / rc=abr / bitrate=2037 / ratetol=1.0 / qcomp=0.60 / qpmin=10 / qpmax=51 / qpstep=4 / ip_ratio=1.40 / pb_ratio=1.30 / aq=1:1.00
Encoded date                     : UTC 2011-12-03 23:31:23
Tagged date                      : UTC 2011-12-03 11:37:22
Color primaries                  : BT.709-5, BT.1361, IEC 61966-2-4, SMPTE RP177
Transfer characteristics         : BT.709-5, BT.1361
Matrix coefficients              : BT.709-5, BT.1361, IEC 61966-2-4 709, SMPTE RP177

Audio
ID                               : 2
Format                           : AAC
Format/Info                      : Advanced Audio Codec
Format version                   : Version 4
Format profile                   : LC
Format settings, SBR             : No
Codec ID                         : 40
Duration                         : 1h 48mn
Bit rate mode                    : Variable
Bit rate                         : 384 Kbps
Maximum bit rate                 : 490 Kbps
Channel(s)                       : 6 channels
Channel positions                : Front: L C R, Rear: L R, LFE
Sampling rate                    : 48.0 KHz
Stream size                      : 299 MiB (16%)
Language                         : English
Encoded date                     : UTC 2011-12-03 11:36:52
Tagged date                      : UTC 2011-12-03 11:37:22

Enjoy...

[img]http://img13.imageshack.us/img13/8456/10000bc2008720pmp4aacbr.jpg[/img]